{"title":"The Expendables.3.2014","uid":10779603,"size":1615242101,"categoryP":"video","categoryS":"movies","magnet":"?xt=urn:btih:b40de5f84fef9916b80ed134e16bb90e7a59747c&amp;dn=The+Expendables.3.2014&amp;tr=udp%3A%2F%2Ftracker.openbittorrent.com%3A80&amp;tr=udp%3A%2F%2Fopen.demonii.com%3A1337&amp;tr=udp%3A%2F%2Ftracker.coppersurfer.tk%3A6969&amp;tr=udp%3A%2F%2Fexodus.desync.com%3A6969","seeders":2,"leechers":3,"uploader":"qubek","files":1,"time":1408147978,"description":" The Expendables 3 (2014)\n\nIMDB Info : http://www.imdb.com/title/tt2333784\n\nComplete name : The Expendables.3.2014.720p.BRRip.x264-Fastbet99.mp4\nFormat : MPEG-4\nFormat profile : Base Media\nCodec ID : isom\nFile size : 1.50 GiB\nDuration : 2h 6mn\nOverall bit rate mode : Variable\nOverall bit rate : 1 706 Kbps\n\nVideo\nID : 1\nFormat : AVC\nFormat/Info : Advanced Video Codec\nFormat profile : &lt;a class=&quot;__cf_email__&quot; href=&quot;/cdn-cgi/l/email-protection&quot; data-cfemail=&quot;8fc7e6e8e7cfc3bba1be&quot;&gt;[email&amp;#160;protected]&lt;/a&gt;&lt;script cf-hash='f9e31' type=&quot;text/javascript&quot;&gt;\n/* &lt;![CDATA[ */!function(){try{var t=&quot;currentScript&quot;in document?document.currentScript:function(){for(var t=document.getElementsByTagName(&quot;script&quot;),e=t.length;e--;)if(t[e].getAttribute(&quot;cf-hash&quot;))return t[e]}();if(t&amp;&amp;t.previousSibling){var e,r,n,i,c=t.previousSibling,a=c.getAttribute(&quot;data-cfemail&quot;);if(a){for(e=&quot;&quot;,r=parseInt(a.substr(0,2),16),n=2;a.length-n;n+=2)i=parseInt(a.substr(n,2),16)^r,e+=String.fromCharCode(i);e=document.createTextNode(e),c.parentNode.replaceChild(e,c)}}}catch(u){}}();/* ]]&gt; */&lt;/script&gt;\nFormat settings, CABAC : Yes\nFormat settings, ReFrames : 4 frames\nCodec ID : avc1\nCodec ID/Info : Advanced Video Coding\nDuration : 2h 6mn\nBit rate : 1 508 Kbps\nMaximum bit rate : 6 559 Kbps\nWidth : 1 280 pixels\nHeight : 552 pixels\nDisplay aspect ratio : 2.35:1\nFrame rate mode : Constant\nFrame rate : 23.976 fps\nColor space : YUV\nChroma subsampling : 4:2:0\nBit depth : 8 bits\nScan type : Progressive\nBits/(Pixel*Frame) : 0.089\nStream size : 1.33 GiB (88%)\nWriting library : x264 core 142 r2431 ac76440\n\nAudio #1\nID : 2\nFormat : AAC\nFormat/Info : Advanced Audio Codec\nFormat profile : LC\nCodec ID : 40\nDuration : 2h 6mn\nBit rate mode : Variable\nBit rate : 96.0 Kbps\nMaximum bit rate : 159 Kbps\nChannel count : 2 channels\nChannel positions : Front: L R\nSampling rate : 44.1 KHz\nCompression mode : Lossy\nStream size : 86.7 MiB (6%)\nLanguage : Russian\n\nAudio #2\nID : 3\nFormat : AAC\nFormat/Info : Advanced Audio Codec\nFormat profile : LC\nCodec ID : 40\nDuration : 2h 6mn\nBit rate mode : Variable\nBit rate : 96.0 Kbps\nMaximum bit rate : 132 Kbps\nChannel count : 2 channels\nChannel positions : Front: L R\nSampling rate : 48.0 KHz\nCompression mode : Lossy\nStream size : 86.7 MiB (6%)\nLanguage : English\nEncoder : Fastbet99","torrent":{"xt":"urn:btih:b40de5f84fef9916b80ed134e16bb90e7a59747c","amp;dn":"The+Expendables.3.2014","amp;tr":["udp%3A%2F%2Ftracker.openbittorrent.com%3A80","udp%3A%2F%2Fopen.demonii.com%3A1337","udp%3A%2F%2Ftracker.coppersurfer.tk%3A6969","udp%3A%2F%2Fexodus.desync.com%3A6969"],"infoHash":"b40de5f84fef9916b80ed134e16bb90e7a59747c","infoHashBuffer":{"type":"Buffer","data":[180,13,229,248,79,239,153,22,184,14,209,52,225,107,185,14,122,89,116,124]},"announce":[],"urlList":[]}}